<?xml version="1.0"?>
<svg width="350" height="225" xmlns="http://www.w3.org/2000/svg" version="1.1">
 <g class="layer">
  <title>Layer 1</title>
  <g id="svg_1" transform="translate(-827 0)">
   <svg data-id="lg_g0yGoMf4KIkDq8NUuI" data-version="2" height="225" id="svg_2" viewBox="0 0 353 225" width="2000" x="0" xml:space="preserve" y="0">
    <path d="m78.27,144.16l195.97,0" fill="#FFFFFF" id="svg_47" stroke="#FFFFFF" stroke-width="2.12"/>
    <path d="m178,72.05c-1,-2.86 -1.86,-5.71 -2.86,-9.14l-0.43,0c-0.57,2.86 -1.71,6 -2.71,8.85l-8.56,24.41l-8,0l15.28,-38.97c0.28,-1 0.57,-1.57 0.57,-1.99c0,-0.58 -0.15,-1.29 -0.57,-2.29c-2.72,-7.42 -5.86,-13.27 -10.99,-13.27c-0.43,0 -1,0 -1.43,0.14l0.57,-6c0.71,-0.28 1.85,-0.28 3,-0.28c8.28,0 12.13,7.99 16.7,19.98l16.13,42.82l-8.14,0l-8.56,-24.26z" fill="#FFFFFF" id="svg_46"/>
    <path d="m219.96,127.57l-89.78,0c-9.85,0 -17.85,-7.99 -17.85,-17.84l0,-89.78c0,-9.85 8,-17.84 17.85,-17.84l89.78,0c9.85,0 17.84,7.99 17.84,17.84l0,89.78c0,9.85 -7.99,17.84 -17.84,17.84m-89.78,-124.04c-8.99,0 -16.42,7.43 -16.42,16.42l0,89.78c0,8.99 7.43,16.42 16.42,16.42l89.78,0c8.99,0 16.42,-7.43 16.42,-16.42l0,-89.78c0,-8.99 -7.28,-16.42 -16.42,-16.42l-89.78,0z" fill="#FFFFFF" id="svg_45"/>
    <path d="m11.54,162q0,0.04 0.04,0.6l-2.76,0.24l0,26.36l11.04,0l0.8,-6.4l0.76,0.2l-0.6,7l-9.28,0l-8.04,0.04l0.04,-0.56l2.08,-0.28q0.4,-0.04 0.48,-0.52l0,-25.32q-0.08,-0.48 -0.48,-0.52l-2.08,-0.2l-0.04,-0.6l8.04,-0.04z" fill="#FFFFFF" id="svg_44"/>
    <rect fill="none" height="28.04" id="svg_43" transform="translate(12.96 176.52)" width="17.92" x="-8.96" y="-14.02"/>
    <path d="m22.58,190.04l0.04,-0.56l2.08,-0.28q0.28,-0.04 0.48,-0.52l8.64,-26.68l2.64,0l9.2,27.24l2.76,0.16q0,0.04 -0.04,0.6l-8,0.04q0,-0.36 0.04,-0.56l2.08,-0.28q0.32,-0.04 0.32,-0.48l-2.2,-6.52l-12.48,0l-2.12,6.96l4.64,0.24q0,0.04 -0.04,0.6l-8.04,0.04zm11.52,-27.28l-5.72,18.64l11.96,0l-6.24,-18.64z" fill="#FFFFFF" id="svg_42"/>
    <rect fill="none" height="28.04" id="svg_41" transform="translate(36 176.52)" width="25.84" x="-12.92" y="-14.02"/>
    <path d="m49.5,162.6l0.04,-0.6l5.28,0l9.56,20.28l9.4,-20.28l5.28,0q0,0.08 0.04,0.28t0,0.32l-2.12,0.24q-0.4,0.04 -0.48,0.52l0,25.88l2.96,0.16q0,0.04 -0.04,0.6l-8.04,0.04l0.04,-0.56l2.08,-0.28q0.4,-0.04 0.48,-0.48l0,-25.28l-9.12,19.72l-0.8,1.6l-0.92,0l-10.12,-21.36l0,25.76l4.56,0.24q0,0.04 -0.04,0.6l-8.04,0.04l0.04,-0.56l2.08,-0.28q0.4,-0.04 0.48,-0.52l0,-25.32q-0.08,-0.48 -0.48,-0.52l-2.12,-0.24z" fill="#FFFFFF" id="svg_40"/>
    <rect fill="none" height="28.04" id="svg_39" transform="translate(64.98 176.52)" width="29.96" x="-14.98" y="-14.02"/>
    <path d="m82.1,162.6l0.04,-0.6l8.56,0q8.64,0 8.64,6.76q0,2.6 -3.44,5.68q5.08,1.24 5.08,7.28q0,4.72 -2.38,6.5q-2.38,1.78 -7.3,1.78l-1.16,0l-8.04,0.04l0.04,-0.56l2.08,-0.28q0.4,-0.04 0.48,-0.52l0,-25.28q-0.08,-0.52 -0.48,-0.56l-2.12,-0.24zm10,12.08l-4.68,0l0,14.72l3.68,0q7.16,0 7.16,-7.52q0,-3.84 -1.54,-5.52q-1.54,-1.68 -4.62,-1.68m0.2,-0.6q1.48,0 2.56,0.16q1.76,-2.76 1.76,-5.24q0,-6.4 -6.12,-6.4l-3.08,0l0,11.48l4.88,0z" fill="#FFFFFF" id="svg_38"/>
    <rect fill="none" height="28.04" id="svg_37" transform="translate(92.04 176.52)" width="18.88" x="-9.44" y="-14.02"/>
    <path d="m103.54,162.6l0.04,-0.6l9.76,0q5.4,0 8.66,3.14t3.26,10.22q0,7 -2.28,10.48q-2,3.04 -6.24,3.84q-1.88,0.32 -4.4,0.32l-0.76,0l-8.04,0.04l0.04,-0.56l2.08,-0.28q0.4,-0.04 0.48,-0.52l0,-25.28q-0.08,-0.52 -0.48,-0.56l-2.12,-0.24zm9.6,0l-4.28,0l0,26.8l3.28,0q1.92,0 3.26,-0.22q1.34,-0.22 2.8,-1.04q1.46,-0.82 2.3,-2.26q2.04,-3.4 2.04,-10.32q0,-7.2 -2.84,-10.2q-2.6,-2.76 -6.56,-2.76" fill="#FFFFFF" id="svg_36"/>
    <rect fill="none" height="28.04" id="svg_35" transform="translate(114.9 176.52)" width="21.72" x="-10.86" y="-14.02"/>
    <path d="m125.62,190.04l0.04,-0.56l2.08,-0.28q0.28,-0.04 0.48,-0.52l8.64,-26.68l2.64,0l9.2,27.24l2.76,0.16q0,0.04 -0.04,0.6l-8,0.04q0,-0.36 0.04,-0.56l2.08,-0.28q0.32,-0.04 0.32,-0.48l-2.2,-6.52l-12.48,0l-2.12,6.96l4.64,0.24q0,0.04 -0.04,0.6l-8.04,0.04zm11.52,-27.28l-5.72,18.64l11.96,0l-6.24,-18.64z" fill="#FFFFFF" id="svg_34"/>
    <rect fill="none" height="28.04" id="svg_33" transform="translate(139.04 176.52)" width="25.84" x="-12.92" y="-14.02"/>
    <path d="m188.7,197.36q-0.04,0.56 -0.04,0.6l-6.44,0.04q-1.96,-1.36 -3.88,-3.48t-2.6,-4.44q-10.36,-0.8 -10.36,-14q0,-6.52 3.38,-10.38q3.38,-3.86 8.42,-3.86q11.8,0 11.8,14.24q0,6.16 -3.04,9.9t-7.72,4.14q1,3.44 5.44,6.96l5.04,0.28zm-20.6,-21.36q0,13.36 9.08,13.36q3.92,0 6.5,-3.58t2.58,-9.78q0,-13.36 -9.08,-13.36q-3.88,0 -6.48,3.58q-2.6,3.58 -2.6,9.78" fill="#FFFFFF" id="svg_32"/>
    <rect fill="none" height="36.16" id="svg_31" transform="translate(177.68 180.42)" width="23.6" x="-11.8" y="-18.08"/>
    <path d="m199.86,162q0,0.04 0.04,0.6l-2.72,0.24l0,15.12q0,6.96 2.44,9.24q1.16,1.12 2.36,1.54q1.2,0.42 2.82,0.42q1.62,0 2.94,-0.44q1.32,-0.44 2.56,-1.6q2.64,-2.4 2.64,-9.16l0,-14.48q-0.08,-0.52 -0.48,-0.56l-2.88,-0.28q-0.04,-0.24 -0.04,-0.6l7.6,-0.04q0,0.04 0.04,0.6l-3.32,0.36l0,15.04q0,12.16 -9.08,12.16q-2.2,0 -3.86,-0.46q-1.66,-0.46 -3.22,-1.7q-3.24,-2.52 -3.24,-10l0,-14.64q-0.16,-0.48 -0.48,-0.52l-2.08,-0.2q-0.04,-0.24 -0.04,-0.6l8,-0.04z" fill="#FFFFFF" id="svg_30"/>
    <rect fill="none" height="28.16" id="svg_29" transform="translate(205.02 176.58)" width="25.32" x="-12.66" y="-14.08"/>
    <path d="m216.78,190.04l0.04,-0.56l2.08,-0.28q0.28,-0.04 0.48,-0.52l8.64,-26.68l2.64,0l9.2,27.24l2.76,0.16q0,0.04 -0.04,0.6l-8,0.04q0,-0.36 0.04,-0.56l2.08,-0.28q0.32,-0.04 0.32,-0.48l-2.2,-6.52l-12.48,0l-2.12,6.96l4.64,0.24q0,0.04 -0.04,0.6l-8.04,0.04zm11.52,-27.28l-5.72,18.64l11.96,0l-6.24,-18.64z" fill="#FFFFFF" id="svg_28"/>
    <rect fill="none" height="28.04" id="svg_27" transform="translate(230.2 176.52)" width="25.84" x="-12.92" y="-14.02"/>
    <path d="m243.98,162.6l0.04,-0.6l5.48,0l15.56,26.88l-0.2,-25.48q-0.16,-0.4 -0.44,-0.44l-3.68,-0.32q-0.04,-0.24 -0.04,-0.6l7.6,-0.04q0,0.04 0.04,0.6l-2.56,0.28l0,27.12l-2.92,0l-15.56,-26.88l0.2,26.04l4.56,0.24q0,0.04 -0.04,0.6l-8.04,0.04l0.04,-0.56l2.08,-0.28q0.4,-0.04 0.48,-0.52l0,-25.32q-0.08,-0.48 -0.48,-0.52l-2.12,-0.24z" fill="#FFFFFF" id="svg_26"/>
    <rect fill="none" height="28.04" id="svg_25" transform="translate(256.66 176.52)" width="24.36" x="-12.18" y="-14.02"/>
    <path d="m277.94,162.8l-6.88,0l-0.64,5.28l-0.76,-0.32l0.4,-4.96l-0.04,0l0.08,-0.32l0.04,-0.48l0.08,0.04l0,-0.04l18.16,0l0.52,5.76l-0.8,0.32l-0.64,-5.28l-7,0l0,26.44l2.92,0.16q0,0.04 -0.04,0.6l-8,0.04q0,-0.36 0.04,-0.56l2.08,-0.28q0.4,-0.04 0.48,-0.52l0,-25.88z" fill="#FFFFFF" id="svg_24"/>
    <rect fill="none" height="28.04" id="svg_23" transform="translate(279.78 176.52)" width="19.24" x="-9.62" y="-14.02"/>
    <path d="m299.5,162q0,0.04 0.04,0.6l-2.72,0.24l0,15.12q0,6.96 2.44,9.24q1.16,1.12 2.36,1.54q1.2,0.42 2.82,0.42q1.62,0 2.94,-0.44q1.32,-0.44 2.56,-1.6q2.64,-2.4 2.64,-9.16l0,-14.48q-0.08,-0.52 -0.48,-0.56l-2.88,-0.28q-0.04,-0.24 -0.04,-0.6l7.6,-0.04q0,0.04 0.04,0.6l-3.32,0.36l0,15.04q0,12.16 -9.08,12.16q-2.2,0 -3.86,-0.46q-1.66,-0.46 -3.22,-1.7q-3.24,-2.52 -3.24,-10l0,-14.64q-0.16,-0.48 -0.48,-0.52l-2.08,-0.2q-0.04,-0.24 -0.04,-0.6l8,-0.04z" fill="#FFFFFF" id="svg_22"/>
    <rect fill="none" height="28.16" id="svg_21" transform="translate(304.66 176.58)" width="25.32" x="-12.66" y="-14.08"/>
    <path d="m318.54,162.6l0.04,-0.6l5.28,0l9.56,20.28l9.4,-20.28l5.28,0q0,0.08 0.04,0.28t0,0.32l-2.12,0.24q-0.4,0.04 -0.48,0.52l0,25.88l2.96,0.16q0,0.04 -0.04,0.6l-8.04,0.04l0.04,-0.56l2.08,-0.28q0.4,-0.04 0.48,-0.48l0,-25.28l-9.12,19.72l-0.8,1.6l-0.92,0l-10.12,-21.36l0,25.76l4.56,0.24q0,0.04 -0.04,0.6l-8.04,0.04l0.04,-0.56l2.08,-0.28q0.4,-0.04 0.48,-0.52l0,-25.32q-0.08,-0.48 -0.48,-0.52l-2.12,-0.24z" fill="#FFFFFF" id="svg_20"/>
    <rect fill="none" height="28.04" id="svg_19" transform="translate(334.02 176.52)" width="29.96" x="-14.98" y="-14.02"/>
    <path d="m142.64,217.92l-6.47,0l-1.34,3.88l-1.36,0l5.31,-14.7l1.28,0l5.5,14.7l-1.53,0l-1.39,-3.88zm-6.11,-1.05l5.73,0l-2.91,-8.17l-2.82,8.17z" fill="#FFFFFF" id="svg_18"/>
    <rect fill="none" height="14.7" id="svg_17" transform="translate(140.01 214.95)" width="12.09" x="-6.04" y="-7.35"/>
    <path d="m147.39,221.8l0,-15.64l1.36,-0.11l0,15.75l-1.36,0z" fill="#FFFFFF" id="svg_16"/>
    <rect fill="none" height="15.75" id="svg_15" transform="translate(148.57 214.43)" width="1.36" x="-0.68" y="-7.88"/>
    <path d="m151.06,221.8l0,-15.64l1.37,-0.11l0,15.75l-1.37,0z" fill="#FFFFFF" id="svg_14"/>
    <rect fill="none" height="15.75" id="svg_13" transform="translate(152.25 214.43)" width="1.37" x="-0.69" y="-7.88"/>
    <path d="m164.97,221.8l-3.95,0l0,-1.01l1.26,-0.14l0,-12.37l-1.16,-0.15l0,-1.03l3.74,0l0,1.03l-1.15,0.15l0,12.37l1.26,0.14l0,1.01z" fill="#FFFFFF" id="svg_12"/>
    <rect fill="none" height="14.7" id="svg_11" transform="translate(163.5 214.95)" width="3.95" x="-1.98" y="-7.35"/>
    <path d="m168.96,212.46q1.57,-1.16 2.98,-1.22q1.28,0 1.97,0.31q0.69,0.32 1.15,0.9q0.45,0.57 0.45,1.62l0,7.73l-1.37,0l0,-7.37q0,-0.78 -0.33,-1.2q-0.68,-0.77 -2.06,-0.77q-1.32,0.06 -2.79,0.86l0,8.48l-1.37,0l0,-10.5l1.37,-0.1l0,1.26z" fill="#FFFFFF" id="svg_10"/>
    <rect fill="none" height="10.6" id="svg_9" transform="translate(172.05 217)" width="7.92" x="-3.96" y="-5.3"/>
    <path d="m190.82,207.02q6.19,0 6.19,7.47q0,3.43 -1.76,5.41q-1.77,1.99 -4.43,1.99q-2.84,0 -4.39,-1.56q-1.81,-1.85 -1.81,-5.56q0,-3.72 1.78,-5.74q1.77,-2.01 4.42,-2.01m-3.36,12.3q1.15,1.31 3.36,1.31q2.08,0 3.42,-1.65q1.34,-1.65 1.34,-4.74q0,-3.09 -1.4,-4.64q-1.18,-1.32 -3.36,-1.32q-2.06,0 -3.42,1.66q-1.35,1.66 -1.35,4.75q0,3.1 1.41,4.63" fill="#FFFFFF" id="svg_8"/>
    <rect fill="none" height="14.87" id="svg_7" transform="translate(191.31 214.96)" width="12.39" x="-6.2" y="-7.43"/>
    <path d="m200.33,212.46q1.57,-1.16 2.98,-1.22q1.28,0 1.98,0.31q0.69,0.32 1.14,0.9q0.45,0.57 0.45,1.62l0,7.73l-1.36,0l0,-7.37q0,-0.78 -0.34,-1.2q-0.67,-0.77 -2.06,-0.77q-1.32,0.06 -2.79,0.86l0,8.48l-1.37,0l0,-10.5l1.37,-0.1l0,1.26z" fill="#FFFFFF" id="svg_6"/>
    <rect fill="none" height="10.6" id="svg_5" transform="translate(203.42 217)" width="7.92" x="-3.96" y="-5.3"/>
    <path d="m210.66,216.97q0,3.7 3.53,3.7q1.49,0 2.73,-0.4q0.31,-0.11 0.44,-0.17l0.32,1.11q-0.74,0.44 -2.67,0.63q-0.55,0.05 -1.16,0.05q-1.76,0 -2.94,-0.89q-1.61,-1.19 -1.61,-3.99q0,-2.79 1.46,-4.29t3.53,-1.5q2.08,0 3.13,1.34q0.8,1.07 0.8,2.84q0,0.42 -0.04,0.88l-7.5,0q-0.02,0.17 -0.02,0.36l0,0.33zm3.72,-4.45q-1.3,0 -2.23,0.79q-0.92,0.78 -1.28,2.02l6.11,0q-0.1,-2.33 -1.8,-2.71q-0.38,-0.1 -0.8,-0.1" fill="#FFFFFF" id="svg_4"/>
    <rect fill="none" height="10.67" id="svg_3" transform="translate(214.26 217.06)" width="8.92" x="-4.46" y="-5.33"/>
   </svg>
  </g>
 </g>
</svg>